<svg version="1.1" xmlns="http://www.w3.org/2000/svg" xmlns:xlink="http://www.w3.org/1999/xlink" x="0px" y="0px"
	 viewBox="0 0 93 93">
<style type="text/css">
	.st0{fill:none;stroke:#000000;stroke-width:3;stroke-miterlimit:10;}
	.st1{fill:#000000;}
</style>
<circle class="st0" cx="46.5" cy="46.5" r="45"/>
<g>
	<path class="st1" d="M63.2,32.9L32.9,63.2c-0.8,0.8-2.2,0.8-3.1,0l0,0c-0.8-0.8-0.8-2.2,0-3.1l30.3-30.3c0.8-0.8,2.2-0.8,3.1,0l0,0
		C64,30.7,64,32,63.2,32.9z"/>
	<path class="st1" d="M60.1,63.2L29.8,32.9c-0.8-0.8-0.8-2.2,0-3.1l0,0c0.8-0.8,2.2-0.8,3.1,0l30.3,30.3c0.8,0.8,0.8,2.2,0,3.1l0,0
		C62.3,64,61,64,60.1,63.2z"/>
</g>
<g>
</g>
<g>
</g>
<g>
</g>
<g>
</g>
<g>
</g>
<g>
</g>
</svg>
